<?xml version="1.0" encoding="UTF-8"?>
<svg xmlns="http://www.w3.org/2000/svg" viewBox="0 0 800 800">
  <!-- 緑の葉 -->
  <path d="M400 120C300 220 300 320 400 420C500 320 500 220 400 120Z" fill="#5AD43F"/>
  <path d="M400 120C350 220 350 320 400 420" fill="none" stroke="#fff" stroke-width="20" stroke-linecap="round"/>
  <path d="M400 120C450 220 450 320 400 420" fill="none" stroke="#fff" stroke-width="20" stroke-linecap="round"/>
  
  <!-- 青い波 -->
  <path d="M250 460C300 420 350 380 400 420C450 380 500 420 550 460C500 500 450 540 400 500C350 540 300 500 250 460Z" fill="#0099FF"/>
  <path d="M200 500C250 460 300 420 400 460C500 420 550 460 600 500C550 540 500 580 400 540C300 580 250 540 200 500Z" fill="#0088DD"/>
  <path d="M180 560C230 520 280 480 400 520C520 480 570 520 620 560C570 600 520 640 400 600C280 640 230 600 180 560Z" fill="#0077CC"/>
</svg> 